<svg width="1024" height="1024" viewBox="0 0 1024 1024" fill="none" xmlns="http://www.w3.org/2000/svg">
<path d="M367.535 206.712C402.869 206.713 432.198 218.769 455.768 238.99C481.599 261.151 489.188 296.695 489.188 330.73V512.001L489.218 513.174C489.226 513.34 489.251 513.507 489.263 513.672C489.29 514.042 489.329 514.41 489.374 514.778C489.42 515.158 489.473 515.534 489.537 515.907C489.595 516.243 489.665 516.576 489.738 516.909C489.821 517.289 489.911 517.666 490.013 518.038C490.106 518.379 490.208 518.718 490.317 519.055C490.434 519.414 490.562 519.767 490.696 520.117C490.822 520.449 490.955 520.778 491.097 521.105C491.241 521.436 491.39 521.763 491.55 522.085C491.716 522.423 491.892 522.756 492.077 523.087C492.253 523.404 492.435 523.716 492.626 524.023C492.877 524.427 493.135 524.828 493.413 525.219C493.449 525.268 493.482 525.318 493.517 525.367C493.872 525.856 494.248 526.334 494.646 526.8C494.73 526.899 494.813 527 494.899 527.097C495.209 527.448 495.529 527.794 495.864 528.129C495.971 528.237 496.089 528.336 496.198 528.441C496.246 528.487 496.291 528.537 496.339 528.582C496.81 529.028 497.296 529.447 497.795 529.845C497.846 529.886 497.899 529.923 497.951 529.964C498.48 530.378 499.021 530.768 499.577 531.129C500.777 531.911 502.051 532.587 503.393 533.134C503.469 533.165 503.548 533.186 503.624 533.216C506.218 534.241 509.041 534.82 512 534.82C514.119 534.82 516.164 534.507 518.111 533.966C518.243 533.929 518.38 533.909 518.512 533.869C519.081 533.7 519.633 533.487 520.183 533.275C520.319 533.223 520.463 533.189 520.599 533.134C521.274 532.859 521.932 532.55 522.574 532.214C522.848 532.07 523.107 531.901 523.376 531.746C523.738 531.537 524.103 531.335 524.453 531.107C524.943 530.787 525.423 530.445 525.893 530.082C526.022 529.983 526.153 529.887 526.279 529.785C526.75 529.406 527.207 529.004 527.653 528.582C527.7 528.538 527.747 528.494 527.794 528.449C527.904 528.343 528.02 528.245 528.128 528.137C557.378 498.887 606.44 477.853 644.176 477.851C656.773 477.851 666.993 467.637 666.994 455.039C666.993 442.443 656.779 432.229 644.183 432.228C610.694 432.228 573.041 443.771 540.638 462.255C538.062 463.724 534.811 461.89 534.811 458.924V330.723C534.811 296.688 542.401 261.142 568.235 238.984C591.809 218.765 621.144 206.712 656.48 206.712H749.337C816.526 206.714 870.996 261.185 870.998 328.373L863.394 616.086C863.394 700.074 802.909 768.16 718.922 768.162H594.773C565.952 768.164 531.761 791.733 515.616 815.434C513.932 817.906 510.075 817.906 508.391 815.434C492.245 791.733 458.055 768.165 429.234 768.162H312.689C228.701 768.161 160.605 700.074 160.605 616.086L153.001 328.373C153.003 261.184 207.481 206.713 274.67 206.712H367.535Z" fill="#191A1D"/>
</svg>
